<svg width="132" height="36" viewBox="0 0 132 36" fill="none" xmlns="http://www.w3.org/2000/svg">
  <path d="M8 26L16.8 10H24L15.2 26H8Z" fill="#6CC24A"/>
  <path d="M18 26L26.8 10H34L25.2 26H18Z" fill="#0F4C9A"/>
  <path d="M29 26L37.8 10H45L36.2 26H29Z" fill="#E5E7EB"/>
  <path d="M48.174 10.9091H53.4446L58.094 22.2599H58.2928L62.9422 10.9091H68.2128L60.1593 29H56.2275L48.174 10.9091Z" fill="#F8FAFC"/>
  <path d="M69.7266 29V10.9091H76.8645C78.2367 10.9091 79.4062 11.1709 80.373 11.6946C81.3456 12.2183 82.0858 12.9467 82.5934 13.88C83.1069 14.8074 83.3636 15.8769 83.3636 17.0884C83.3636 18.2999 83.104 19.3693 82.5845 20.2968C82.065 21.2242 81.3122 21.9467 80.3269 22.4645C79.3475 22.9822 78.1637 23.2411 76.7756 23.2411H72.9539V29H69.7266ZM72.9539 20.6506H76.1229C76.8443 20.6506 77.4408 20.5264 77.9126 20.2781C78.3902 20.0239 78.7474 19.6726 78.9844 19.2243C79.2273 18.7701 79.3487 18.0581 79.3487 17.0884C79.3487 16.1128 79.2273 15.4008 78.9844 14.9524C78.7474 14.5041 78.3902 14.1558 77.9126 13.9074C77.4408 13.6532 76.8443 13.5261 76.1229 13.5261H72.9539V20.6506Z" fill="#F8FAFC"/>
  <path d="M89.6896 29H86.231L92.4782 10.9091H96.6363L102.875 29H99.4165L94.6166 14.2219H94.4657L89.6896 29ZM89.4736 21.8885H99.5644V24.4964H89.4736V21.8885Z" fill="#F8FAFC"/>
  <path d="M104.421 10.9091H108.06L112.112 18.5795H112.28L116.332 10.9091H119.971L113.813 21.826V29H110.586V21.826L104.421 10.9091Z" fill="#F8FAFC"/>
</svg>
